{"title":"Age Of Heroes (2011) DvdRip [Xvid] {1337x}-X","uid":6502873,"size":734777344,"categoryP":"video","categoryS":"movies","magnet":"?xt=urn:btih:cd9d2b8b6c5a17ca8fb3e7ee3872a9be5369942f&amp;dn=Age+Of+Heroes+%282011%29+DvdRip+%5BXvid%5D+%7B1337x%7D-X&amp;tr=udp%3A%2F%2Ftracker.openbittorrent.com%3A80&amp;tr=udp%3A%2F%2Fopen.demonii.com%3A1337&amp;tr=udp%3A%2F%2Ftracker.coppersurfer.tk%3A6969&amp;tr=udp%3A%2F%2Fexodus.desync.com%3A6969","seeders":2,"leechers":0,"uploader":"hiest","files":-1,"time":1309315234,"description":" ##     ## ##     ##  ######  ########    ###    ##    ##  ######   ##     ## \n ###   ### ##     ## ##    ##    ##      ## ##   ###   ## ##    ##   ##   ##  \n #### #### ##     ## ##          ##     ##   ##  ####  ## ##          ## ##   \n ## ### ## ##     ##  ######     ##    ##     ## ## ## ## ##   ####    ###    \n ##     ## ##     ##       ##    ##    ######### ##  #### ##    ##    ## ##   \n ##     ## ##     ## ##    ##    ##    ##     ## ##   ### ##    ##   ##   ##  \n ##     ##  #######   ######     ##    ##     ## ##    ##  ######   ##     ##\n\n Video\n ID : 0\n Format : MPEG-4 Visual\n Format profile : Advanced Simple@L5\n Format settings, BVOP : Yes\n Format settings, QPel : No\n Format settings, GMC : No warppoints\n Format settings, Matrix : Default (H.263)\n Muxing mode : Packed bitstream\n Codec ID : XVID\n Codec ID/Hint : XviD\n Duration : 1h 29mn\n Bit rate : 975 Kbps\n Width : 720 pixels\n Height : 304 pixels\n Display aspect ratio : 2.35:1\n Frame rate : 25.000 fps\n Color space : YUV\n Chroma subsampling : 4:2:0\n Bit depth : 8 bits\n Scan type : Progressive\n Bits/(Pixel*Frame) : 0.178\n Stream size : 626 MiB (89%)\n Writing library : XviD 57\n\n Audio\n ID : 1\n Format : MPEG Audio\n Format version : Version 1\n Format profile : Layer 3\n Mode : Joint stereo\n Mode extension : MS Stereo\n Codec ID : 55\n Codec ID/Hint : MP3\n Duration : 1h 29mn\n Bit rate mode : Variable\n Bit rate : 103 Kbps\n Nominal bit rate : 112 Kbps\n Channel(s) : 2 channels\n Sampling rate : 48.0 KHz\n Stream size : 66.0 MiB (9%)\n Alignment : Aligned on interleaves\n Interleave, duration : 24 ms (0.60 video frame)\n Interleave, preload duration : 179 ms\n Writing library : LAME3.97 \n Encoding settings : -m j -V 4 -q 2 -lowpass 16 --abr 112\n\n\n IMDB\n &lt;a href=&quot; http://www.imdb.com/title/tt1590950&quot; rel=&quot;nofollow&quot; target=&quot;_NEW&quot;&gt; http://www.imdb.com/title/tt1590950&lt;/a&gt;\n\n\n Screens:\n &lt;a href=&quot; http://leetleech.org/images/27464483675065312826.jpg&quot; rel=&quot;nofollow&quot; target=&quot;_NEW&quot;&gt; http://leetleech.org/images/27464483675065312826.jpg&lt;/a&gt;\n\n\n ##     ## ##     ##  ######  ########    ###    ##    ##  ######   ##     ## \n ###   ### ##     ## ##    ##    ##      ## ##   ###   ## ##    ##   ##   ##  \n #### #### ##     ## ##          ##     ##   ##  ####  ## ##          ## ##   \n ## ### ## ##     ##  ######     ##    ##     ## ## ## ## ##   ####    ###    \n ##     ## ##     ##       ##    ##    ######### ##  #### ##    ##    ## ##   \n ##     ## ##     ## ##    ##    ##    ##     ## ##   ### ##    ##   ##   ##  \n ##     ##  #######   ######     ##    ##     ## ##    ##  ######   ##     ##","torrent":{"xt":"urn:btih:cd9d2b8b6c5a17ca8fb3e7ee3872a9be5369942f","amp;dn":"Age+Of+Heroes+%282011%29+DvdRip+%5BXvid%5D+%7B1337x%7D-X","amp;tr":["udp%3A%2F%2Ftracker.openbittorrent.com%3A80","udp%3A%2F%2Fopen.demonii.com%3A1337","udp%3A%2F%2Ftracker.coppersurfer.tk%3A6969","udp%3A%2F%2Fexodus.desync.com%3A6969"],"infoHash":"cd9d2b8b6c5a17ca8fb3e7ee3872a9be5369942f","infoHashBuffer":{"type":"Buffer","data":[205,157,43,139,108,90,23,202,143,179,231,238,56,114,169,190,83,105,148,47]},"announce":[],"urlList":[]}}